<svg width="1200" height="800" viewBox="0 0 1200 800" fill="none" xmlns="http://www.w3.org/2000/svg">
<rect width="1200" height="800" rx="36" fill="url(#bg)"/>
<circle cx="166" cy="162" r="96" fill="#FFFFFF" fill-opacity="0.1"/>
<circle cx="1028" cy="128" r="86" fill="#FFFFFF" fill-opacity="0.08"/>
<rect x="146" y="178" width="908" height="446" rx="34" fill="#F4E4CF"/>
<rect x="196" y="224" width="808" height="354" rx="26" fill="#C77152"/>
<rect x="240" y="268" width="720" height="266" rx="18" fill="#E89D79"/>
<path d="M328 306H872" stroke="#F7D8C5" stroke-width="18" stroke-linecap="round"/>
<path d="M328 382H872" stroke="#F7D8C5" stroke-width="18" stroke-linecap="round"/>
<path d="M328 458H872" stroke="#F7D8C5" stroke-width="18" stroke-linecap="round"/>
<path d="M418 250V552" stroke="#F7D8C5" stroke-width="16" stroke-linecap="round"/>
<path d="M600 250V552" stroke="#F7D8C5" stroke-width="16" stroke-linecap="round"/>
<path d="M782 250V552" stroke="#F7D8C5" stroke-width="16" stroke-linecap="round"/>
<path d="M220 180V622" stroke="#E8D4B9" stroke-width="14" stroke-linecap="round" stroke-dasharray="8 18"/>
<path d="M980 180V622" stroke="#E8D4B9" stroke-width="14" stroke-linecap="round" stroke-dasharray="8 18"/>
<path d="M172 404H1032" stroke="#8FD0E8" stroke-width="34" stroke-linecap="round"/>
<circle cx="350" cy="404" r="18" fill="#FFFFFF" fill-opacity="0.95"/>
<circle cx="434" cy="404" r="12" fill="#FFFFFF" fill-opacity="0.75"/>
<circle cx="820" cy="404" r="20" fill="#FFFFFF" fill-opacity="0.92"/>
<circle cx="892" cy="404" r="10" fill="#FFFFFF" fill-opacity="0.72"/>
<path d="M948 244L1004 292" stroke="#7CC0DA" stroke-width="22" stroke-linecap="round"/>
<path d="M1004 292L936 512" stroke="#7CC0DA" stroke-width="22" stroke-linecap="round"/>
<rect x="894" y="500" width="90" height="50" rx="20" transform="rotate(-20 894 500)" fill="#5B7487"/>
<defs>
<linearGradient id="bg" x1="67" y1="66" x2="1149" y2="768" gradientUnits="userSpaceOnUse">
<stop stop-color="#FFF7EF"/>
<stop offset="0.52" stop-color="#F8E5CF"/>
<stop offset="1" stop-color="#E5C1A7"/>
</linearGradient>
</defs>
</svg>